<svg xmlns="http://www.w3.org/2000/svg" viewBox="0 0 2048 1880">
<path d="M 300 915 L 297 1036 L 310 1141 L 333 1224 L 364 1294 L 406 1360 L 466 1425 L 541 1479 L 614 1514 L 701 1538 L 807 1548 L 908 1542 L 1007 1523 L 1230 1444 L 1329 1392 L 1462 1305 L 1480 1211 L 1376 1294 L 1299 1342 L 1208 1389 L 1077 1439 L 985 1460 L 911 1466 L 817 1460 L 728 1439 L 655 1407 L 597 1366 L 553 1318 L 529 1277 L 504 1211 L 487 1121 L 486 1023 L 503 915 Z" fill="#152db6" />
<path d="M 31 832 L 33 855 L 45 878 L 59 890 L 88 899 L 986 899 L 1008 894 L 1034 873 L 1044 845 L 1042 821 L 1030 799 L 1017 788 L 992 779 L 84 779 L 68 783 L 47 797 Z" fill="#152db6" />
<path d="M 1729 725 L 1729 738 L 1836 738 L 1836 725 Z" fill="#152db6" />
<path d="M 1620 671 L 1620 673 L 1623 679 L 1624 684 L 1627 689 L 1628 695 L 1630 697 L 1630 701 L 1632 704 L 1632 706 L 1635 712 L 1636 717 L 1638 720 L 1639 725 L 1641 727 L 1641 730 L 1644 735 L 1645 741 L 1647 743 L 1649 751 L 1652 756 L 1653 763 L 1655 766 L 1655 768 L 1659 776 L 1659 778 L 1662 784 L 1663 789 L 1665 792 L 1666 797 L 1668 800 L 1669 804 L 1671 804 L 1671 671 Z" fill="#152db6" />
<path d="M 1498 671 L 1627 1773 L 1681 1778 L 1681 1839 L 1661 1841 L 1650 1867 L 1739 1868 L 1743 1856 L 1728 1841 L 1693 1837 L 1697 1781 L 1754 1773 L 1874 849 L 1859 675 L 1677 671 L 1697 1711 L 1689 1773 L 1670 830 L 1610 671 Z" fill="#152db6" />
<path d="M 1770 758 L 1772 756 L 1794 756 L 1796 758 L 1796 764 L 1794 766 L 1772 766 L 1770 764 Z" fill="#152db6" />
<path d="M 1722 720 L 1723 719 L 1843 719 L 1844 720 L 1844 741 L 1841 744 L 1724 744 L 1722 742 Z" fill="#152db6" />
<path d="M 354 762 L 559 762 L 574 731 L 577 728 L 597 691 L 599 690 L 602 683 L 613 667 L 619 654 L 412 654 L 401 670 L 387 698 L 379 710 L 372 726 L 360 746 Z" fill="#152db6" />
<path d="M 1844 623 L 1844 663 L 1858 663 L 1858 623 Z" fill="#152db6" />
<path d="M 1818 623 L 1818 663 L 1836 663 L 1836 623 Z" fill="#152db6" />
<path d="M 1707 623 L 1707 663 L 1809 663 L 1809 623 Z" fill="#152db6" />
<path d="M 1677 623 L 1677 663 L 1699 663 L 1699 623 Z" fill="#152db6" />
<path d="M 1552 623 L 1552 663 L 1671 663 L 1671 623 Z" fill="#152db6" />
<path d="M 1527 623 L 1527 663 L 1545 663 L 1545 623 Z" fill="#152db6" />
<path d="M 1497 623 L 1497 636 L 1498 637 L 1498 663 L 1520 663 L 1520 623 Z" fill="#152db6" />
<path d="M 1518 566 L 1518 610 L 1530 610 L 1530 566 Z" fill="#152db6" />
<path d="M 1823 558 L 1823 610 L 1835 610 L 1835 558 Z" fill="#152db6" />
<path d="M 139 568 L 140 593 L 153 617 L 175 633 L 196 637 L 1110 637 L 1134 629 L 1150 615 L 1163 583 L 1161 561 L 1152 543 L 1134 526 L 1112 518 L 191 518 L 161 530 L 148 545 Z" fill="#152db6" />
<path d="M 2022 564 L 1954 535 L 1716 487 L 1716 452 L 1772 315 L 1780 178 L 1681 112 L 1589 70 L 1457 35 L 1353 24 L 1259 27 L 1146 47 L 931 135 L 827 200 L 703 299 L 519 499 L 726 501 L 879 318 L 1022 201 L 1197 118 L 1349 99 L 1476 131 L 1570 200 L 1645 311 L 1693 446 L 1692 488 L 1450 535 L 1381 564 L 1419 585 L 1625 529 L 1694 522 L 1774 528 L 1984 585 Z" fill="#152db6" />
</svg>